<svg id="delete" xmlns="http://www.w3.org/2000/svg" viewBox="0 0 585 110"><defs><style>.cls-1{fill:#53abd3;}.cls-2{fill:#231f20;}.cls-3{fill:#59ba47;}.cls-4{fill:#323842;}.cls-5{fill:#e23d59;}.cls-6{fill:#fff;}.cls-7{fill:#727373;}.cls-10,.cls-8{fill:#1a154a;}.cls-11,.cls-9{fill:#76a4d7;}.cls-10,.cls-11{font-size:12px;font-family:VT323;}</style></defs><title>focus_ui</title><polygon class="cls-1" points="585 110 292.67 110 281.67 55 292.67 0 585 0 585 110"/><polygon class="cls-2" points="292.67 110 0 110 0 0 292.67 0 281.67 55 292.67 110"/><rect class="cls-3" x="35.83" y="31" width="48" height="48" transform="translate(56.42 -26.2) rotate(45)"/><path class="cls-4" d="M363,55a18,18,0,0,0,3.86,11.14L355.51,77.51,333,55l22.51-22.51,11.37,11.37A17.9,17.9,0,0,0,363,55Z"/><path class="cls-4" d="M403.51,29.51L392.15,40.86a18,18,0,0,0-22.29,0L358.49,29.51,381,7Z"/><path class="cls-4" d="M429,55L406.49,77.51,395.13,66.15a18,18,0,0,0,0-22.31l11.36-11.35Z"/><path class="cls-4" d="M403.51,80.49L381,103,358.49,80.49l11.36-11.37a18,18,0,0,0,22.3,0Z"/><polygon class="cls-5" points="99.64 55 127.58 55 127.58 88.94 65.83 88.94 99.64 55"/><circle class="cls-6" cx="36.83" cy="32" r="4"/><circle class="cls-7" cx="381" cy="55" r="13.5"/><polygon class="cls-7" points="304.49 32.49 349.51 32.49 327 55 304.49 55 304.49 32.49"/><polygon class="cls-6" points="457.51 77.51 412.49 77.51 435 55 457.51 55 457.51 77.51"/><rect class="cls-4" x="142.46" y="20" width="125" height="70"/><rect class="cls-8" x="147.29" y="40.04" width="115.33" height="7.48"/><rect class="cls-8" x="147.29" y="47.52" width="115.33" height="7.48"/><rect class="cls-8" x="147.29" y="62.48" width="115.33" height="7.48"/><rect class="cls-8" x="147.29" y="69.96" width="115.33" height="7.48"/><rect class="cls-8" x="147.29" y="77.44" width="115.33" height="7.48"/><rect class="cls-9" x="147.29" y="55" width="115.33" height="7.48"/><rect class="cls-9" x="147.29" y="25.08" width="115.33" height="14.96"/><text class="cls-10" transform="translate(147.29 32.56)">222 OF 222</text><text class="cls-10" transform="translate(229.03 32.56)">0:14:22</text><text class="cls-10" transform="translate(147.29 40.04)">FILENAME01</text><text class="cls-10" transform="translate(195.36 62.48)">FILE</text><text class="cls-11" transform="translate(200.16 69.96)">XY</text><text class="cls-11" transform="translate(202.56 77.44)">Z</text></svg>