<?xml version="1.0"?>
<svg xmlns="http://www.w3.org/2000/svg" id="delete" viewBox="0 0 585 110">
    <defs>
        <style>
            .cls-1{fill:#fff200;}
            .cls-2,.cls-3{font-size:12px;font-family:VT323;}
            .cls-2,.cls-4{fill:#1a154a;}
            .cls-3{fill:#76a4d7;}</style>
    </defs>
    <title>laser_ui_screen_z_edit</title>
    <text class="text_on" transform="translate(209.74 36.16)">Z</text>
    <text class="text_off" transform="translate(155.4 66.22)">Z</text>
    <text class="text_off" transform="translate(196.87 66.22)">0.233</text>
    <text class="text_off" transform="translate(206.47 77.44)">&#x221A;</text>
    <text class="text_off" transform="translate(223.07 66.22)">in</text>
    <polygon class="header_symbol" points="167.04 36.64 167.04 37.6 166.52 37.6 166.52 37.12 162.82 37.12 162.82 37.6 162.29 37.6 162.29 36.64 163.35 36.64 163.35 36.15 163.88 36.15 163.88 36.64 165.46 36.64 165.46 36.15 165.99 36.15 165.99 36.64 167.04 36.64"/>
    <polygon class="header_symbol" points="166.52 37.6 166.52 38.08 166 38.08 166 38.56 165.46 38.56 165.46 39.04 164.94 39.04 164.94 38.56 164.4 38.56 164.4 39.04 163.89 39.04 163.89 38.56 163.36 38.56 163.36 38.08 162.82 38.08 162.82 37.6 163.88 37.6 163.88 38.08 165.46 38.08 165.46 37.6 166.52 37.6"/>
    <rect class="header_symbol" x="164.41" y="39.04" width="0.53" height="0.48"/>
    <polygon class="header_symbol" points="153.32 37.12 153.32 39.06 152.79 39.06 152.79 39.53 150.68 39.53 150.68 39.05 152.26 39.05 152.26 38.58 152.79 38.58 152.79 37.6 152.26 37.6 152.26 37.12 150.15 37.12 150.15 38.08 149.62 38.08 149.62 37.6 149.1 37.6 149.1 37.12 148.57 37.12 148.57 36.64 149.1 36.64 149.1 36.15 149.62 36.15 149.62 35.67 150.15 35.67 150.15 36.64 152.79 36.64 152.79 37.12 153.32 37.12"/>
    <polygon class="header_symbol" points="160.71 28.47 160.71 27.99 160.18 27.99 160.18 27.51 159.65 27.51 159.65 27.03 159.12 27.03 159.12 26.55 158.6 26.55 158.6 26.07 158.07 26.07 158.07 25.59 157.54 25.59 157.54 26.07 157.01 26.07 157.01 26.55 156.49 26.55 156.49 27.03 155.96 27.03 155.96 27.51 155.43 27.51 155.43 27.99 154.9 27.99 154.9 28.47 154.37 28.47 154.37 28.95 161.24 28.95 161.24 28.47 160.71 28.47"/>
    <polygon class="header_symbol" points="154.9 36.64 154.9 37.12 155.43 37.12 155.43 37.6 155.96 37.6 155.96 38.08 156.49 38.08 156.49 38.56 157.01 38.56 157.01 39.04 157.54 39.04 157.54 39.52 158.07 39.52 158.07 39.04 158.6 39.04 158.6 38.56 159.12 38.56 159.12 38.08 159.65 38.08 159.65 37.6 160.18 37.6 160.18 37.12 160.71 37.12 160.71 36.64 161.24 36.64 161.24 36.16 154.37 36.16 154.37 36.64 154.9 36.64"/>
    <polygon class="header_symbol" points="153.32 29.43 153.32 29.91 152.79 29.91 152.79 30.39 152.26 30.39 152.26 30.88 151.74 30.88 151.74 31.36 151.21 31.36 151.21 31.84 150.68 31.84 150.68 32.32 150.15 32.32 150.15 32.8 150.68 32.8 150.68 33.28 151.21 33.28 151.21 33.76 151.74 33.76 151.74 34.24 152.26 34.24 152.26 34.72 152.79 34.72 152.79 35.2 153.32 35.2 153.32 35.68 153.85 35.68 153.85 29.43 153.32 29.43"/>
    <polygon class="header_symbol" points="162.29 35.68 162.29 35.2 162.82 35.2 162.82 34.72 163.35 34.72 163.35 34.24 163.88 34.24 163.88 33.76 164.4 33.76 164.4 33.28 164.93 33.28 164.93 32.8 165.46 32.8 165.46 32.32 164.93 32.32 164.93 31.84 164.4 31.84 164.4 31.36 163.88 31.36 163.88 30.88 163.35 30.88 163.35 30.39 162.82 30.39 162.82 29.91 162.29 29.91 162.29 29.43 161.76 29.43 161.76 35.68 162.29 35.68"/>
</svg>