# Rhino

mtllib object2.mtl
o object_1
usemtl Default
v -5.371860980987549 8.745733261108398 5.335564613342285
v -5.371860980987549 11.45281982421875 5.335564613342285
v 7.767420768737793 8.745733261108398 5.335564613342285
v 7.767420768737793 11.45281982421875 5.335564613342285
v 7.767420768737793 8.745733261108398 5.335564613342285
v 7.767420768737793 11.45281982421875 5.335564613342285
v 7.767420768737793 8.745733261108398 -4.754822731018066
v 7.767420768737793 11.45281982421875 -4.754822731018066
v 7.767420768737793 8.745733261108398 -4.754822731018066
v 7.767420768737793 11.45281982421875 -4.754822731018066
v -5.371860980987549 8.745733261108398 -4.754822731018066
v -5.371860980987549 11.45281982421875 -4.754822731018066
v -5.371860980987549 8.745733261108398 -4.754822731018066
v -5.371860980987549 11.45281982421875 -4.754822731018066
v -5.371860980987549 8.745733261108398 5.335564613342285
v -5.371860980987549 11.45281982421875 5.335564613342285
v -5.371860980987549 8.745733261108398 5.335564613342285
v 7.767420768737793 8.745733261108398 5.335564613342285
v 7.767420768737793 8.745733261108398 -4.754822731018066
v -5.371860980987549 8.745733261108398 -4.754822731018066
v -5.371860980987549 11.45281982421875 5.335564613342285
v 7.767420768737793 11.45281982421875 5.335564613342285
v 7.767420768737793 11.45281982421875 -4.754822731018066
v -5.371860980987549 11.45281982421875 -4.754822731018066
vt 0 0
vt 0 0.5591377019882202
vt 0.2828125059604645 0
vt 0.2828125059604645 0.5591377019882202
vt 0.2828125059604645 0
vt 0.2828125059604645 0.5591377019882202
vt 0.5 0
vt 0.5 0.5591377019882202
vt 0.5 0
vt 0.5 0.5591377019882202
vt 0.7828124761581421 0
vt 0.7828124761581421 0.5591377019882202
vt 0.7828124761581421 0
vt 0.7828124761581421 0.5591377019882202
vt 1 0
vt 1 0.5591377019882202
vt 0 1
vt 0.2828125059604645 1
vt 0.2828125059604645 0.559138298034668
vt 0 0.559138298034668
vt 0.7171875238418579 0.559138298034668
vt 1 0.559138298034668
vt 1 1
vt 0.7171875238418579 1
vn 0 0 1
vn 0 0 1
vn 0 0 1
vn 0 0 1
vn 1 0 0
vn 1 0 0
vn 1 0 0
vn 1 0 0
vn 0 0 -1
vn 0 0 -1
vn 0 0 -1
vn 0 0 -1
vn -1 0 0
vn -1 0 0
vn -1 0 0
vn -1 0 0
vn 0 -1 0
vn 0 -1 0
vn 0 -1 0
vn 0 -1 0
vn 0 1 0
vn 0 1 0
vn 0 1 0
vn 0 1 0
f 1/1/1 3/3/3 4/4/4 2/2/2
f 5/5/5 7/7/7 8/8/8 6/6/6
f 9/9/9 11/11/11 12/12/12 10/10/10
f 13/13/13 15/15/15 16/16/16 14/14/14
f 18/18/18 17/17/17 20/20/20
f 20/20/20 19/19/19 18/18/18
f 22/22/22 24/24/24 21/21/21
f 24/24/24 22/22/22 23/23/23
