# Rhino

mtllib plastic.mtl
g object_1
usemtl White Reflective
v -0.06170380860567093 1.357483744621277 4.770274162292481
v -0.06170380860567093 1.357483744621277 5.730180263519287
v 11.41520500183106 1.357483744621277 4.770274162292481
v 11.41520500183106 1.357483744621277 5.730180263519287
v 11.41520500183106 1.357483744621277 4.770274162292481
v 11.41520500183106 1.357483744621277 5.730180263519287
v 11.41520500183106 9.625794410705566 4.770274162292481
v 11.41520500183106 9.625794410705566 5.730180263519287
v 11.41520500183106 9.625794410705566 4.770274162292481
v 11.41520500183106 9.625794410705566 5.730180263519287
v -0.06170380860567093 9.625794410705566 4.770274162292481
v -0.06170380860567093 9.625794410705566 5.730180263519287
v -0.06170380860567093 9.625794410705566 4.770274162292481
v -0.06170380860567093 9.625794410705566 5.730180263519287
v -0.06170380860567093 1.357483744621277 4.770274162292481
v -0.06170380860567093 1.357483744621277 5.730180263519287
v -0.06170380860567093 1.357483744621277 4.770274162292481
v 11.41520500183106 1.357483744621277 4.770274162292481
v 11.41520500183106 9.625794410705566 4.770274162292481
v -0.06170380860567093 9.625794410705566 4.770274162292481
v -0.06170380860567093 1.357483744621277 5.730180263519287
v 11.41520500183106 1.357483744621277 5.730180263519287
v 11.41520500183106 9.625794410705566 5.730180263519287
v -0.06170380860567093 9.625794410705566 5.730180263519287
vt 0 0
vt 0 0.527431070804596
vt 0.2906250059604645 0
vt 0.2906250059604645 0.527431070804596
vt 0.2906250059604645 0
vt 0.2906250059604645 0.527431070804596
vt 0.5 0
vt 0.5 0.527431070804596
vt 0.5 0
vt 0.5 0.527431070804596
vt 0.7906249761581421 0
vt 0.7906249761581421 0.527431070804596
vt 0.7906249761581421 0
vt 0.7906249761581421 0.527431070804596
vt 1 0
vt 1 0.527431070804596
vt 0 1
vt 0.2906250059604645 1
vt 0.2906250059604645 0.5274315476417542
vt 0 0.5274315476417542
vt 0.7093750238418579 0.5274315476417542
vt 1 0.5274315476417542
vt 1 1
vt 0.7093750238418579 1
vn 0 -1 0
vn 0 -1 0
vn 0 -1 0
vn 0 -1 0
vn 1 0 0
vn 1 0 0
vn 1 0 0
vn 1 0 0
vn 0 1 0
vn 0 1 0
vn 0 1 0
vn 0 1 0
vn -1 0 0
vn -1 0 0
vn -1 0 0
vn -1 0 0
vn 0 0 -1
vn 0 0 -1
vn 0 0 -1
vn 0 0 -1
vn 0 0 1
vn 0 0 1
vn 0 0 1
vn 0 0 1
f 1/1/1 3/3/3 4/4/4 2/2/2
f 5/5/5 7/7/7 8/8/8 6/6/6
f 9/9/9 11/11/11 12/12/12 10/10/10
f 13/13/13 15/15/15 16/16/16 14/14/14
f 18/18/18 17/17/17 20/20/20
f 20/20/20 19/19/19 18/18/18
f 22/22/22 24/24/24 21/21/21
f 24/24/24 22/22/22 23/23/23
