<?xml version="1.0"?>
<svg xmlns="http://www.w3.org/2000/svg" id="base" viewBox="0 0 594.67 110.67">
    <defs>
        <style>.cls-1{fill:#53abd3;}.cls-2{fill:#231f20;}.cls-3{fill:#b9d989;}.cls-4{fill:#323842;}.cls-5{fill:#f2717c;}.cls-6{fill:#fff;}.cls-7{fill:#727373;}</style>
    </defs>
    <title>laser_ui</title>
    <rect class="cls-1" width="594.67" height="110.67"/>
    <polygon class="cls-2" points="292.67 110.67 0 110.67 0 0 292.67 0 281.67 55.33 292.67 110.67"/>
    <rect class="cls-3" x="121.5" y="221.67" width="48" height="48" transform="translate(128 -221.26) rotate(45)"/>
    <rect class="cls-4" x="140.67" y="21.39" width="125.25" height="67.88"/>
    <path class="cls-4" d="M448.68,245.67a18,18,0,0,0,3.86,11.14l-11.36,11.37-22.51-22.51,22.51-22.51,11.37,11.37A17.9,17.9,0,0,0,448.68,245.67Z" transform="translate(-88.33 -190.33)"/>
    <path class="cls-4" d="M489.18,220.18l-11.36,11.35a18,18,0,0,0-22.29,0l-11.37-11.37,22.51-22.51Z" transform="translate(-88.33 -190.33)"/>
    <path class="cls-4" d="M514.67,245.67l-22.51,22.51L480.8,256.82a18,18,0,0,0,0-22.31l11.36-11.35Z" transform="translate(-88.33 -190.33)"/>
    <path class="cls-4" d="M489.18,271.16l-22.51,22.51-22.51-22.51,11.36-11.37a18,18,0,0,0,22.3,0Z" transform="translate(-88.33 -190.33)"/>
    <polygon class="cls-5" points="96.98 55.33 124.92 55.33 124.92 89.27 63.17 89.27 96.98 55.33"/>
    <circle class="cls-6" cx="34.17" cy="32.33" r="3.75"/>
    <circle class="cls-7" cx="378.33" cy="55.33" r="13.67"/>
    <polygon class="cls-7" points="301.83 32.83 346.85 32.83 324.34 55.34 301.83 55.34 301.83 32.83"/>
    <polygon class="cls-6" points="454.85 77.85 409.83 77.85 432.34 55.34 454.85 55.34 454.85 77.85"/>
</svg>
